<svg xmlns="http://www.w3.org/2000/svg" viewBox="0 0 900 560" role="img" aria-label="音声棚">
  <defs>
    <linearGradient id="bg" x1="0" x2="1" y1="0" y2="1">
      <stop offset="0" stop-color="#22372e"/>
      <stop offset=".55" stop-color="#465d69"/>
      <stop offset="1" stop-color="#b98237"/>
    </linearGradient>
    <filter id="shadow" x="-20%" y="-20%" width="140%" height="140%">
      <feDropShadow dx="0" dy="22" stdDeviation="18" flood-color="#000" flood-opacity=".28"/>
    </filter>
  </defs>
  <rect width="900" height="560" fill="url(#bg)"/>
  <g opacity=".18" stroke="#fff8ea" stroke-width="2">
    <path d="M0 112h900M0 224h900M0 336h900M0 448h900"/>
    <path d="M150 0v560M300 0v560M450 0v560M600 0v560M750 0v560"/>
  </g>
  <g filter="url(#shadow)">
    <rect x="118" y="122" width="664" height="314" rx="8" fill="#fff8ea"/>
    <rect x="146" y="154" width="608" height="70" rx="6" fill="#315a4f"/>
    <rect x="146" y="250" width="608" height="154" rx="6" fill="#ede5d6"/>
    <circle cx="280" cy="327" r="52" fill="#26382f"/>
    <circle cx="620" cy="327" r="52" fill="#26382f"/>
    <circle cx="280" cy="327" r="19" fill="#fff8ea"/>
    <circle cx="620" cy="327" r="19" fill="#fff8ea"/>
    <path d="M352 327h196" stroke="#315a4f" stroke-width="18" stroke-linecap="round"/>
    <g stroke-width="10" stroke-linecap="round">
      <path d="M190 189h110" stroke="#fff8ea"/>
      <path d="M346 189h66" stroke="#b98237"/>
      <path d="M454 189h160" stroke="#fff8ea"/>
      <path d="M656 189h54" stroke="#d7a86c"/>
    </g>
  </g>
  <g fill="#fff8ea" opacity=".82">
    <rect x="82" y="78" width="70" height="10" rx="5"/>
    <rect x="742" y="478" width="96" height="10" rx="5"/>
    <rect x="64" y="470" width="132" height="10" rx="5"/>
  </g>
</svg>
